<svg width="312" height="279" viewBox="0 0 312 279" fill="none" xmlns="http://www.w3.org/2000/svg">
<path d="M274.759 87.6176C274.363 86.7983 258.942 88.8854 258.645 88.0447C256.828 89.9001 246.277 83.8234 243.804 85.0235C235.445 89.0979 236.857 94.2004 230.09 88.7373C228.19 90.7913 224.456 83.5296 221.787 84.8231C210.267 90.436 207.256 76.878 201.68 65.3949C200.369 62.6992 184.203 64.7513 183.991 61.9337C177.66 62.5377 176.464 70.0223 171.7 65.8674C168.291 68.3809 166.297 67.5698 162.84 70.0175C150.422 78.7795 135.59 82.452 123.123 91.1116C110.927 99.5726 98.2744 109.917 89.6951 121.947C88.2444 123.976 86.5135 125.793 84.4857 127.273C84.4857 127.273 55.1129 148.449 55.0964 148.461C40.6626 158.997 36.6909 177.374 39.7408 194.933C41.459 204.8 43.7247 212.352 47.2565 221.588C51.134 231.729 55.9407 241.205 62.3857 250.191C66.6987 256.186 69.9736 262.334 74.509 268.167C79.2087 274.208 82.2387 281.353 86.234 287.883C95.268 302.648 108.842 313.697 121.319 325.408C133.205 336.568 136.043 352.833 145.525 365.823C155.007 378.813 178.782 386.51 195.565 384.524C204.833 383.426 211.931 379.025 219.809 375.19C230.183 370.136 240.457 368.304 250.412 361.655C256.99 357.269 264.383 351.835 270.595 346.948C279.365 340.043 287.428 334.8 296.512 328.308C309.106 319.303 323.425 309.822 334.083 298.717C345.834 286.462 357.257 282.431 370.353 272.243C389.849 257.08 382.573 226.599 373.037 199.756C373.037 199.756 367.816 189.21 367.798 189.185C362.712 182.218 363.222 172.79 359.368 165.138C356.641 159.723 353.661 154.43 350.474 149.25C347.976 145.204 345.351 141.227 342.63 137.344C328.973 117.854 325.072 114.518 308.862 97.9882C307.695 98.865 297.556 99.0121 296.196 99.6769C284.676 105.29 280.341 99.1089 274.759 87.6176Z" fill="#01AFBA"/>
<path d="M373.034 199.756C373.034 199.756 367.813 189.209 367.795 189.185C362.709 182.217 363.219 172.79 359.365 165.137C356.638 159.723 353.658 154.429 350.471 149.249C347.973 145.204 345.348 141.226 342.627 137.343C328.97 117.854 325.069 114.517 308.859 97.9875C307.734 98.8343 298.356 99.0043 296.417 99.6014C308.096 113.456 324.613 132.57 336.376 154.727C353.65 187.255 349.172 200.335 360.749 231.393C369.972 256.146 352.36 261.445 322.534 279.437C290.024 299.049 276.975 327.805 224.29 347.37C202.533 355.455 184.417 372.318 151.674 372.189C163.226 381.577 181.641 386.171 195.57 384.517C204.839 383.419 211.937 379.019 219.814 375.183C230.188 370.13 240.463 368.297 250.418 361.648C256.996 357.262 264.388 351.828 270.601 346.941C279.37 340.036 287.433 334.793 296.517 328.301C309.112 319.297 323.431 309.815 334.088 298.711C345.839 286.456 357.263 282.425 370.358 272.236C389.855 257.073 382.578 226.592 373.043 199.75" fill="#FDFCDD"/>
<path d="M186.125 265.658C191.956 187.096 230.255 189.366 261.582 180.354C226.649 142.881 180.814 149.121 155.306 183.622C133.052 213.719 155.02 259.395 186.125 265.658Z" fill="#FDFCDD"/>
<path d="M288.703 339.094C278.889 345.728 268.915 352.127 258.631 358.047C233.391 372.578 194.62 394.934 164.456 384.698C143.944 377.731 130.373 357.512 119.142 340.257C104.707 318.074 88.4899 297.103 74.1533 274.848C51.0414 238.961 13.5418 172.267 56.476 137.024C64.8292 130.171 74.3159 124.871 83.2928 118.873C99.4946 108.042 114.031 94.9632 130.034 83.8609C145.956 72.8188 164.221 67.7738 180.451 57.6396C181.916 56.7214 183.387 55.8113 184.878 54.9117C186.826 53.7545 189.311 54.0945 190.867 55.7419C194.287 59.3539 199.13 61.436 204.156 61.4322C205.454 61.4287 206.699 61.9563 207.603 62.8832C208.507 63.8102 209.002 65.0605 208.973 66.3536C208.927 68.6794 209.306 70.9468 210.105 73.0968C211.818 77.6772 215.205 81.3132 219.649 83.3338C224.108 85.3565 229.078 85.5191 233.666 83.8075C235.768 83.0166 237.72 81.831 239.443 80.2964C241.345 78.5928 244.238 78.6604 246.057 80.4432C251.117 85.402 258.676 86.9998 265.304 84.5169C267.25 83.7895 269.068 82.7144 270.717 81.3216C271.997 80.2362 273.743 79.8935 275.332 80.4087C279.491 81.7436 281.057 90.5878 284.97 93.6126C290.245 97.6715 297.914 98.8997 304.005 95.9402C305.489 95.2218 307.012 94.2614 308.653 94.4492C310.336 94.6436 311.619 95.9864 312.749 97.2398C330.45 116.938 345.856 138.702 358.381 162.04C364.632 173.686 370.161 185.708 374.948 198.032C377.454 204.477 379.61 211.014 381.823 217.56C383.456 222.376 386.633 226.694 387.512 231.707C390.179 246.888 387.387 262.226 377.151 274.168C369.502 283.076 359.507 289.566 349.793 296.165C329.213 310.154 309.309 325.174 288.699 339.122M257.651 347.894C273.502 338.452 289.356 328.945 304.154 317.904C319.208 306.677 332.221 294.559 348.479 284.895C352.383 282.575 356.408 280.178 360.412 277.633C378.442 266.173 384.384 239.469 373.134 220.49L367.119 210.346C364.142 205.315 363.423 199.933 362.734 194.731C362.266 191.181 361.823 187.84 360.675 184.899C350.795 159.454 335.643 138.298 317.877 117.854C314.328 113.77 310.68 109.569 307.133 105.281C306.797 105.426 306.454 105.562 306.106 105.691C292.688 110.712 277.833 104.779 271.435 92.3968C270.54 92.849 269.622 93.2541 268.677 93.6038C259.878 96.9031 250.02 95.4971 242.517 90.1173C240.809 91.2385 238.976 92.173 237.039 92.8943C230.024 95.5214 222.42 95.2656 215.614 92.1731C208.808 89.0806 203.631 83.5277 201.023 76.5273C200.326 74.6555 199.834 72.7351 199.561 70.7683C194.891 69.996 190.464 68.051 186.761 65.1243C186.358 65.3683 185.952 65.6264 185.555 65.8785C183.339 67.2567 181.129 68.6431 178.87 69.9271C165.376 77.6482 150.047 80.8648 137.085 89.4699C123.368 98.5633 112.062 110.719 99.276 120.985C77.336 138.599 42.3068 147.732 44.9568 182.296C45.4129 188.235 48.3712 192.738 50.2932 198.123C52.2249 203.539 52.549 209.436 54.2312 215.046C58.1572 228.163 65.4872 239.953 72.2235 251.761C82.3179 269.468 91.4509 287.952 104.336 303.874C117.307 319.896 129.902 333.914 140.496 351.924L143.395 356.848C151.045 369.752 165.701 377.87 180.752 377.526C186.571 377.397 190.929 375.475 195.977 373.251C198.032 372.344 200.164 371.405 202.527 370.523C211.107 367.321 220.344 366.838 228.992 363.245C238.57 359.264 247.529 353.934 256.425 348.638C256.828 348.394 257.245 348.152 257.648 347.908" fill="#0081A8"/>
<path d="M261.136 187.671C274.208 209.716 263.573 240.186 237.393 255.731C211.208 271.268 179.399 265.998 166.328 243.953C153.265 221.902 163.892 191.437 190.071 175.892C216.257 160.356 248.065 165.626 261.134 187.685" fill="#393939"/>
<path d="M187.613 171.729C159.182 188.602 147.768 222.109 162.169 246.408C176.57 270.707 211.421 276.753 239.861 259.873C268.3 242.993 279.706 209.493 265.305 185.194C250.898 160.887 216.053 154.849 187.613 171.729ZM189.582 189.762C221.482 161.767 242.019 176.99 253.82 189.106C264.959 200.559 260.905 215.067 257.067 226.634C251.821 242.453 236.941 252.584 221.007 257.464C204.215 262.605 186.432 262.148 174.808 239.991C164.673 220.689 174.782 202.756 189.596 189.764" fill="#0081A8"/>
<path d="M297.117 185.915C299.089 190.243 298.951 194.538 296.812 195.52C294.674 196.502 291.339 193.785 289.364 189.47C287.398 185.15 287.53 180.847 289.669 179.865C291.808 178.883 295.143 181.6 297.117 185.915Z" fill="#FDFCDD"/>
<path d="M294.947 186.906C296.919 191.235 296.781 195.529 294.642 196.511C292.503 197.493 289.168 194.776 287.194 190.461C285.222 186.133 285.36 181.838 287.499 180.856C289.638 179.875 292.973 182.591 294.947 186.906Z" fill="#0081A8"/>
<path d="M254.926 132.318C256.898 136.647 256.76 140.941 254.621 141.923C252.482 142.905 249.139 140.194 247.173 135.874C245.201 131.545 245.339 127.25 247.478 126.268C249.616 125.287 252.96 127.997 254.926 132.318Z" fill="#FDFCDD"/>
<path d="M252.747 133.315C254.719 137.644 254.581 141.938 252.443 142.92C250.304 143.902 246.969 141.185 245.003 136.865C243.031 132.536 243.169 128.241 245.308 127.259C247.446 126.278 250.781 128.994 252.756 133.309" fill="#0081A8"/>
<path d="M271.408 277.524C273.38 281.853 273.242 286.147 271.103 287.129C268.964 288.111 265.629 285.394 263.655 281.08C261.683 276.751 261.821 272.457 263.96 271.475C266.099 270.493 269.434 273.21 271.408 277.524Z" fill="#FDFCDD"/>
<path d="M269.229 278.524C271.201 282.853 271.063 287.147 268.924 288.129C266.786 289.111 263.442 286.4 261.476 282.08C259.51 277.759 259.642 273.457 261.781 272.475C263.92 271.493 267.263 274.204 269.229 278.524Z" fill="#0081A8"/>
<path d="M203.225 126.921C201.853 130.857 199.157 133.517 197.208 132.837C195.264 132.165 194.797 128.426 196.163 124.481C197.544 120.539 200.231 117.885 202.18 118.565C204.13 119.245 204.591 122.976 203.225 126.921Z" fill="#FDFCDD"/>
<path d="M201.246 126.238C199.874 130.174 197.178 132.834 195.229 132.154C193.285 131.482 192.818 127.743 194.184 123.799C195.564 119.856 198.252 117.202 200.201 117.883C202.151 118.563 202.612 122.294 201.246 126.238Z" fill="#0081A8"/>
<path d="M145.545 292.233C140.813 292.777 136.76 291.328 136.5 288.998C136.234 286.661 139.863 284.327 144.589 283.774C149.321 283.229 153.374 284.679 153.634 287.008C153.899 289.346 150.271 291.679 145.545 292.233Z" fill="#FDFCDD"/>
<path d="M145.278 289.858C140.546 290.403 136.494 288.953 136.234 286.624C135.968 284.287 139.597 281.953 144.323 281.4C149.055 280.855 153.108 282.305 153.367 284.634C153.633 286.971 150.005 289.305 145.278 289.858Z" fill="#0081A8"/>
<path d="M102.662 234.54C97.9503 233.849 94.4115 231.407 94.7633 229.085C95.1092 226.754 99.2123 225.434 103.918 226.117C108.625 226.801 112.163 229.243 111.818 231.573C111.472 233.904 107.375 235.232 102.662 234.54Z" fill="#FDFCDD"/>
<path d="M103.008 232.176C98.3018 231.493 94.763 229.051 95.1088 226.72C95.4546 224.39 99.5578 223.07 104.264 223.753C108.97 224.436 112.509 226.878 112.163 229.209C111.817 231.539 107.714 232.859 103.008 232.176Z" fill="#0081A8"/>
<path d="M88.3726 175.807C84.0177 177.752 79.7201 177.576 78.7604 175.431C77.8089 173.279 80.5626 169.972 84.9235 168.035C89.2783 166.091 93.5759 166.266 94.5357 168.412C95.4872 170.564 92.7334 173.871 88.3786 175.816" fill="#FDFCDD"/>
<path d="M87.3973 173.624C83.0425 175.568 78.7449 175.393 77.7851 173.247C76.8336 171.095 79.5873 167.788 83.9482 165.852C88.3031 163.907 92.6007 164.083 93.5604 166.228C94.5119 168.38 91.7582 171.687 87.4033 173.632" fill="#0081A8"/>
<path d="M151.51 115.881C147.965 119.073 143.819 120.248 142.25 118.497C140.673 116.751 142.275 112.749 145.812 109.562C149.357 106.37 153.503 105.195 155.072 106.947C156.649 108.692 155.047 112.695 151.51 115.881Z" fill="#FDFCDD"/>
<path d="M149.916 114.109C146.371 117.301 142.225 118.476 140.656 116.724C139.079 114.979 140.681 110.976 144.217 107.79C147.763 104.598 151.909 103.423 153.478 105.174C155.055 106.92 153.453 110.922 149.916 114.109Z" fill="#0081A8"/>
<path d="M139.458 167.862C141.159 171.595 141.04 175.309 139.193 176.154C137.345 176.998 134.462 174.658 132.76 170.925C131.059 167.192 131.178 163.478 133.026 162.633C134.873 161.788 137.757 164.129 139.458 167.862Z" fill="#FDFCDD"/>
<path d="M137.571 168.722C139.272 172.455 139.153 176.169 137.305 177.014C135.458 177.859 132.574 175.518 130.873 171.785C129.172 168.052 129.291 164.338 131.138 163.493C132.986 162.649 135.869 164.989 137.571 168.722Z" fill="#0081A8"/>
<path d="M293.514 128.044C294.948 131.204 294.847 134.337 293.283 135.051C291.719 135.764 289.289 133.785 287.847 130.632C286.412 127.472 286.513 124.338 288.077 123.625C289.641 122.911 292.071 124.891 293.514 128.044Z" fill="#FDFCDD"/>
<path d="M291.924 128.776C293.359 131.935 293.258 135.069 291.694 135.783C290.13 136.496 287.7 134.517 286.257 131.363C284.823 128.204 284.923 125.07 286.488 124.357C288.052 123.643 290.482 125.622 291.924 128.776Z" fill="#0081A8"/>
</svg>
